<svg xmlns="http://www.w3.org/2000/svg" xmlns:xlink="http://www.w3.org/1999/xlink" width="1073" zoomAndPan="magnify" viewBox="0 0 804.75 1024.499969" height="1366" preserveAspectRatio="xMidYMid meet" version="1.0"><defs><clipPath id="id1"><path d="M 0.0976562 0 L 529 0 L 529 790 L 0.0976562 790 Z M 0.0976562 0 " clip-rule="nonzero"/></clipPath></defs><g clip-path="url(#id1)"><path fill="#ffffff" d="M 360.78125 0 L 528.195312 0 L 528.195312 767.269531 C 442.445312 783.488281 379.316406 789.867188 311.011719 789.867188 C 106.535156 789.65625 0.0976562 698.3125 0.0976562 522.878906 C 0.0976562 353.851562 113 244.152344 287.957031 244.152344 C 315.105469 244.152344 335.789062 246.289062 360.78125 252.6875 Z M 366.648438 390.960938 C 347.039062 384.554688 330.882812 382.421875 310.195312 382.421875 C 225.523438 382.421875 176.613281 434.070312 176.613281 524.578125 C 176.613281 612.703125 223.371094 661.359375 309.121094 661.359375 C 327.648438 661.359375 342.734375 660.316406 366.648438 657.117188 Z M 366.648438 390.960938 " fill-opacity="1" fill-rule="nonzero"/></g><path fill="#ffffff" d="M 801.96875 264.75 L 801.96875 648.910156 C 801.96875 781.210938 792.058594 844.828125 762.96875 899.679688 C 735.820312 952.414062 700.054688 985.667969 626.152344 1022.394531 L 470.804688 949.195312 C 544.707031 914.851562 580.472656 884.503906 603.3125 838.195312 C 627.226562 790.835938 634.765625 735.984375 634.765625 591.714844 L 634.765625 264.753906 L 801.96875 264.753906 Z M 617.898438 0 L 785.3125 0 L 785.3125 170.097656 L 617.898438 170.097656 Z M 617.898438 0 " fill-opacity="1" fill-rule="nonzero"/></svg>